<?xml version="1.0" encoding="UTF-8" standalone="no"?>
<svg
   xmlns:dc="http://purl.org/dc/elements/1.1/"
   xmlns:cc="http://creativecommons.org/ns#"
   xmlns:rdf="http://www.w3.org/1999/02/22-rdf-syntax-ns#"
   xmlns:svg="http://www.w3.org/2000/svg"
   xmlns="http://www.w3.org/2000/svg"
   viewBox="0 0 266.66666 266.66666"
   height="266.66666"
   width="266.66666"
   xml:space="preserve"
   version="1.1"
   id="svg2"><metadata
     id="metadata8"><rdf:RDF><cc:Work
         rdf:about=""><dc:format>image/svg+xml</dc:format><dc:type
           rdf:resource="http://purl.org/dc/dcmitype/StillImage" /></cc:Work></rdf:RDF></metadata><defs
     id="defs6"><clipPath
       id="clipPath18"
       clipPathUnits="userSpaceOnUse"><path
         id="path20"
         d="M 0,200 200,200 200,0 0,0 0,200 Z" /></clipPath></defs><g
     transform="matrix(1.3333333,0,0,-1.3333333,0,266.66667)"
     id="g10"><path
       id="path12"
       style="fill:#8bc54c;fill-opacity:1;fill-rule:nonzero;stroke:none"
       d="m 0,0 199.858,0 0,199.377 L 0,199.377 0,0 Z" /><g
       id="g14"><g
         clip-path="url(#clipPath18)"
         id="g16"><path
           id="path22"
           style="fill:#ffffff;fill-opacity:1;fill-rule:nonzero;stroke:none"
           d="m 188.567,64.849 -14.679,0 0,0.545 14.679,0 0,-0.545 z m -23.921,-4.621 c -3.298,0 -6.524,-0.387 -9.198,1.876 -7.113,5.938 -6.16,18.866 -4.45,26.94 0.714,3.355 2.565,6.797 5.492,8.699 2.426,1.628 5.663,1.086 8.426,1.086 l -0.27,-38.601 z M 92.063,70.203 C 88.862,68.11 85.231,66.866 81.46,66.325 c -3.203,-0.459 -6.671,-0.209 -9.785,0.571 -21.635,5.409 -26.121,34.748 -7.612,46.792 3.088,1.999 6.69,3.262 10.328,3.783 3.156,0.454 6.705,0.237 9.787,-0.529 21.478,-5.351 26.487,-34.625 7.885,-46.739 m 81.826,23.735 14.679,0 0,-0.543 -14.679,0 0,0.543 z M 191.83,73.421 c -5.005,2.103 -12.831,0.672 -18.213,0.672 l 0,10.601 10.871,0 c 3.208,0 6.451,-0.207 9.219,1.726 4.991,3.485 4.87,11.456 -0.247,14.753 -5.553,3.576 -12.79,-0.084 -18.756,1.55 -1.684,0.457 -1.087,3.448 -1.087,4.807 -5.335,0 -11.691,0.93 -16.856,-0.404 -8.969,-2.316 -14.237,-11.781 -14.949,-20.527 -4.947,0.814 -9.516,3.954 -14.409,0.786 -3.033,-1.955 -5.165,-5.077 -7.342,-7.856 -0.873,-1.101 -2.013,-3.188 -3.533,-3.419 -1.399,-0.212 -3.025,1.206 -4.077,1.962 -2.72,1.936 -5.645,4.063 -2.758,7.623 1.126,1.415 6.682,1.136 8.468,1.173 l 0,10.06 c -2.101,0.166 -6.307,-0.273 -8.082,0.863 -0.788,0.496 -0.913,1.573 -1.16,2.399 -0.979,3.806 3.215,5.649 6.25,7.34 -0.46,2.392 -2.356,4.735 -3.617,6.795 -0.461,0.707 -0.831,1.904 -1.834,1.871 -2.248,-0.111 -5.64,-4.157 -7.823,-2.575 -0.862,0.61 -2.598,2.066 -2.767,3.151 -0.388,2.447 3.534,5.166 2.801,7.556 -0.352,1.009 -1.982,1.554 -2.799,2.053 -1.142,0.685 -4.291,3.225 -5.652,2.591 -2.306,-1.084 -2.59,-5.206 -4.96,-6.161 -1.349,-0.539 -3.693,0.694 -5.155,0.757 l -0.544,8.972 -10.057,0 -0.818,-8.972 c -1.399,-0.11 -4.159,-1.476 -5.345,-0.64 -1.735,1.184 -2.634,5.646 -4.769,6.077 -0.883,0.229 -1.938,-0.647 -2.661,-1.087 l -5.981,-3.263 3.535,-8.426 c -1.361,-0.647 -2.533,-3.093 -4.09,-3.051 -1.995,0.052 -6.072,4.307 -7.898,2.417 -1.07,-1.11 -4.91,-6.804 -3.876,-8.174 1.429,-1.894 4.961,-2.448 6.043,-4.602 0.403,-0.795 -0.173,-1.854 -0.392,-2.629 -1.066,-3.806 -5.848,-3.111 -9.36,-3.262 l 0,-10.06 c 3.48,-0.069 8.396,0.536 9.372,-3.262 0.225,-0.873 0.866,-2.012 0.24,-2.844 -1.316,-1.778 -5.579,-2.592 -6.128,-4.817 -0.395,-1.612 3.003,-6.556 4.103,-7.746 1.092,-1.18 2.95,0.313 4.103,0.784 3.138,1.282 5.336,2.35 7.396,-1.439 1.213,-2.231 -2.628,-5.413 -2.776,-7.587 -0.021,-0.975 1.185,-1.506 1.902,-1.927 2.016,-1.181 4.499,-3.091 6.798,-3.51 0.917,1.612 3.107,6.04 4.943,6.584 l 4.841,-0.876 0.818,-8.971 10.057,0 c 0,3.461 -0.545,8.428 3.261,9.443 0.769,0.203 1.848,0.722 2.618,0.312 2.054,-1.093 2.694,-5.81 4.995,-6.254 1.719,-0.322 6.306,2.95 7.572,4.052 1.372,1.198 0.04,2.863 -0.57,4.136 -1.313,2.632 -2.243,3.98 0.067,6.251 l 1.9,1.361 c 1.634,0.273 4.036,-1.646 5.44,-2.345 3.356,-1.675 7.748,-2.853 11.417,-1.542 4.137,1.439 6.379,5.642 8.7,9.054 2.075,2.989 3.502,5.213 7.338,3.937 1.631,-0.558 4.351,-1.229 5.506,-2.683 1.02,-1.328 0.65,-4.518 0.965,-6.148 0.803,-4.223 2.113,-8.491 4.742,-11.962 6.646,-8.776 16.789,-7.339 26.575,-7.339 l 0,4.621 c 5.837,0 14.659,-1.644 19.843,1.489 6.085,3.675 4.981,13.123 -1.358,15.781" /><g
           transform="translate(45.7275,83.3896)"
           id="g24"><path
             id="path26"
             style="fill:#fac031;fill-opacity:1;fill-rule:evenodd;stroke:none"
             d="m 0,0 c 17.209,5.028 20.671,-12.645 36.326,-10.892 -1.115,-1.622 -3.127,-2.925 -5.19,-3.843 -2.158,-0.959 -5.155,-1.721 -7.683,-1.922 -11.662,-0.924 -18.491,6.996 -28.852,5.765 -3.986,-0.471 -6.882,-2.266 -10.378,-3.843 1.021,3.077 2.528,5.659 4.359,7.901 -3.137,5.957 -6.943,11.225 -13.078,14.094 3.758,1.445 8.996,0.579 12.04,-1.067 0.446,-0.181 -0.078,-1.362 0.414,-1.496 0.69,-3.276 0.859,-7.089 2.076,-9.822 C -7.174,-2.873 -3.244,-1.788 0,0" /></g><g
           transform="translate(88.0723,139.7656)"
           id="g28"><path
             id="path30"
             style="fill:#fac031;fill-opacity:1;fill-rule:evenodd;stroke:none"
             d="m 0,0 c 1.679,-2.185 3.156,-4.582 4.358,-7.262 5.249,-1.861 9.33,-6.059 13.077,-8.753 C 13.579,-8.81 7.396,-2.854 0,0" /></g><g
           transform="translate(34.9307,104.958)"
           id="g32"><path
             id="path34"
             style="fill:#fac031;fill-opacity:1;fill-rule:evenodd;stroke:none"
             d="m 0,0 c -5.641,4.037 -14.043,6.908 -19.925,11.744 -4.923,4.045 -8.278,8.588 -12.666,13.453 3.188,-2.512 7.779,-3.453 12.249,-5.338 4.246,-1.79 8.436,-4.322 13.702,-3.844 1.911,0.174 4.325,1.148 4.564,2.778 0.57,3.85 -6.125,7.895 -8.716,9.607 -3.894,2.573 -7.775,4.343 -10.797,7.477 -4.365,4.527 -6.732,11.677 -5.397,19.857 1.275,-0.47 2.184,-2.402 3.114,-3.416 3.367,-3.673 7.978,-6.816 12.87,-8.328 6.185,-1.91 14.836,-2.001 23.251,-2.348 -0.33,7.776 -6.838,12.183 -10.173,16.869 12.384,0.553 18.346,-7.033 24.286,-13.881 1.948,-2.243 3.841,-4.966 6.645,-6.192 1.095,1.329 0.425,3.153 0,4.271 -1.72,4.516 -6.119,8.148 -9.135,11.318 3.402,-1.537 6.689,-1.153 9.55,-2.349 5.387,-2.255 8.943,-6.979 11.209,-12.813 0.574,-1.482 1,-3.039 1.661,-4.485 0.543,-1.187 1.646,-2.322 1.453,-3.63 C 21.53,33.576 6.146,19.935 0,0" /></g><g
           transform="translate(33.2715,93.4277)"
           id="g36"><path
             id="path38"
             style="fill:#fac031;fill-opacity:1;fill-rule:evenodd;stroke:none"
             d="M 0,0 C -8.356,2.934 -15.388,7.231 -18.476,15.587 -13.283,12.712 -6.433,8.469 0.828,9.823 0.895,7.047 -0.063,3.479 0,0" /></g><g
           transform="translate(79.6836,113.125)"
           id="g40"><path
             id="path42"
             style="fill:#fac031;fill-opacity:1;fill-rule:evenodd;stroke:none"
             d="m 0,0 c 3.423,-0.202 6.168,-1.128 8.423,-2.576 0.884,1.702 3.967,0.661 2.921,-1.658 2.273,-2.168 4.657,-4.218 6.187,-7.179 1.968,1.259 3.982,-1.24 2.751,-3.315 -0.373,-0.63 -5.309,-3.789 -6.188,-3.679 -2.164,0.268 -1.892,4.187 0.346,4.787 -1.092,2.391 -2.996,3.908 -4.641,5.705 -1.135,-1.273 -3.671,-0.787 -3.094,1.842 -1.696,1.252 -4.118,1.725 -6.532,2.207 0.272,-2.211 -3.657,-2.677 -3.267,0 -2.679,-0.258 -4.773,-1.147 -6.873,-2.025 0.193,-1.434 -0.33,-2.1 -1.032,-2.576 -0.825,-0.085 -1.367,0.132 -1.721,0.552 -2.188,-1.399 -3.596,-3.631 -5.156,-5.705 0.487,-0.522 1.161,-0.847 1.549,-1.475 0.226,-2.091 -0.623,-3.046 -1.72,-3.128 -0.319,-0.024 -5.402,1.996 -6.187,3.313 -1.308,2.19 0.925,4.603 2.921,2.944 1.949,2.701 3.854,5.445 6.53,7.364 -1.406,2.241 1.771,4.077 2.923,2.026 2.537,1.213 5.062,2.431 8.594,2.576 0.161,1.819 3.251,2.342 3.266,0" /></g><g
           transform="translate(84.5293,88.2568)"
           id="g44"><path
             id="path46"
             style="fill:#fac031;fill-opacity:1;fill-rule:evenodd;stroke:none"
             d="m 0,0 c 2.862,-3.116 6.84,-5.114 8.969,-8.965 -4.371,1.09 -7.267,3.657 -10.823,5.564 -4.621,-3.271 -11.813,1.03 -9.43,7.111 C -8.738,10.213 1.927,7.184 0,0" /></g></g></g></g></svg>